<svg xmlns="http://www.w3.org/2000/svg" xmlns:xlink="http://www.w3.org/1999/xlink" width="2000" zoomAndPan="magnify" viewBox="0 0 1500 1499.999933" height="2000" preserveAspectRatio="xMidYMid meet" version="1.0"><defs><clipPath id="id1"><path d="M 126.082031 126.082031 L 1374.082031 126.082031 L 1374.082031 1374.082031 L 126.082031 1374.082031 Z M 126.082031 126.082031 " clip-rule="nonzero"/></clipPath><clipPath id="id2"><path d="M 227.734375 227.734375 L 1272.484375 227.734375 L 1272.484375 1272.484375 L 227.734375 1272.484375 Z M 227.734375 227.734375 " clip-rule="nonzero"/></clipPath><clipPath id="id3"><path d="M 355.097656 355.097656 L 1144.847656 355.097656 L 1144.847656 1144.847656 L 355.097656 1144.847656 Z M 355.097656 355.097656 " clip-rule="nonzero"/></clipPath></defs><g clip-path="url(#id1)"><path fill="#ffffff" d="M 750.082031 126.082031 C 405.457031 126.082031 126.082031 405.457031 126.082031 750.082031 C 126.082031 1094.707031 405.457031 1374.082031 750.082031 1374.082031 C 1094.707031 1374.082031 1374.082031 1094.707031 1374.082031 750.082031 C 1374.082031 405.457031 1094.707031 126.082031 750.082031 126.082031 " fill-opacity="1" fill-rule="nonzero"/></g><g clip-path="url(#id2)"><path fill="#000000" d="M 750.109375 227.734375 C 461.609375 227.734375 227.734375 461.609375 227.734375 750.109375 C 227.734375 1038.609375 461.609375 1272.484375 750.109375 1272.484375 C 1038.609375 1272.484375 1272.484375 1038.609375 1272.484375 750.109375 C 1272.484375 461.609375 1038.609375 227.734375 750.109375 227.734375 " fill-opacity="1" fill-rule="nonzero"/></g><g clip-path="url(#id3)"><path fill="#ffffff" d="M 1101.65625 688.273438 L 811.671875 688.273438 L 811.671875 398.902344 C 811.671875 374.839844 792.542969 355.097656 768.480469 355.097656 L 731.460938 355.097656 C 707.398438 355.097656 688.273438 374.839844 688.273438 398.902344 L 688.273438 688.273438 L 398.285156 688.273438 C 374.222656 688.273438 355.097656 707.398438 355.097656 731.460938 L 355.097656 768.480469 C 355.097656 792.542969 374.222656 811.671875 398.285156 811.671875 L 688.273438 811.671875 L 688.273438 1102.273438 C 688.273438 1126.335938 707.398438 1144.847656 731.460938 1144.847656 L 768.480469 1144.847656 C 792.542969 1144.847656 811.671875 1125.71875 811.671875 1102.273438 L 811.671875 811.671875 L 1101.65625 811.671875 C 1125.71875 811.671875 1144.847656 792.542969 1144.847656 768.480469 L 1144.847656 731.460938 C 1144.847656 707.398438 1125.71875 688.273438 1101.65625 688.273438 Z M 1101.65625 688.273438 " fill-opacity="1" fill-rule="nonzero"/></g></svg>